<?xml version="1.0" encoding="UTF-8"?>
<svg width="187px" height="31px" viewBox="0 0 187 31" version="1.1" xmlns="http://www.w3.org/2000/svg" xmlns:xlink="http://www.w3.org/1999/xlink">
    <title>bagelstudio</title>
    <g id="starter" stroke="none" stroke-width="1" fill="none" fill-rule="evenodd">
        <g id="Artboard-Copy-3" transform="translate(-26.000000, -19.000000)" fill="#FFFFFF" fill-rule="nonzero">
            <g id="bagelstudio" transform="translate(26.500000, 19.461136)">
                <path d="M13.1851536,0 C20.4671128,0 26.3703071,5.90319432 26.3703071,13.1851536 C26.3703071,20.4671128 20.4671128,26.3703071 13.1851536,26.3703071 C5.90319432,26.3703071 0,20.4671128 0,13.1851536 C0,5.90319432 5.90319432,0 13.1851536,0 Z M13.1851536,7.50189771 C10.046378,7.50189771 7.50189771,10.046378 7.50189771,13.1851536 C7.50189771,16.3239291 10.046378,18.8684094 13.1851536,18.8684094 C16.3239291,18.8684094 18.8684094,16.3239291 18.8684094,13.1851536 C18.8684094,10.046378 16.3239291,7.50189771 13.1851536,7.50189771 Z" id="Oval-Copy-2"></path>
                <g id="BagelStudio" transform="translate(32.718213, 2.647085)">
                    <path d="M15.8751607,11.3337916 C15.4301851,10.5834403 14.7976215,10.0337645 13.9774704,9.68476416 C15.0593719,8.95186309 15.6003228,7.89613668 15.6003228,6.51758453 C15.6003228,4.877282 15.1073597,3.59906776 14.1214331,2.68294142 C13.1355066,1.76681508 11.7525922,1.30875191 9.97268958,1.30875191 L0,1.30875191 L0,19.6312787 L10.7055907,19.6312787 C12.5552935,19.6312787 13.990558,19.1426779 15.0113844,18.1654766 C16.0322109,17.1882753 16.5426242,15.8271733 16.5426242,14.0821706 C16.5426242,13.0002691 16.3201364,12.0841428 15.8751607,11.3337916 Z M9.40992626,5.91555865 C9.6455016,6.14240911 9.76328928,6.45650957 9.76328928,6.85786003 C9.76328928,7.25921048 9.6455016,7.57331094 9.40992626,7.8001614 C9.17435091,8.02701187 8.82971278,8.1404369 8.37601225,8.1404369 L5.88938361,8.1404369 L5.88938361,5.57528315 L8.37601225,5.57528315 C8.82971278,5.57528315 9.17435091,5.68870818 9.40992626,5.91555865 Z M10.2082649,14.9459469 C9.91161463,15.2251474 9.47536385,15.3647475 8.89951301,15.3647475 L5.88938361,15.3647475 L5.88938361,12.1713928 L8.89951301,12.1713928 C9.47536385,12.1713928 9.91161463,12.3109929 10.2082649,12.5901934 C10.5049152,12.8693939 10.6532406,13.2620195 10.6532406,13.7680701 C10.6532406,14.2741207 10.5049152,14.6667463 10.2082649,14.9459469 Z" id="Shape"></path>
                    <path d="M29.4076593,6.38670934 C28.0378324,5.35715797 26.2535672,4.84238208 24.0548639,4.84238208 C22.9729625,4.84238208 21.8430732,5.02996999 20.6651965,5.4051454 C19.4873198,5.78032082 18.5755561,6.17730903 17.929905,6.59610964 L19.5527574,10.260615 C20.0064579,9.99886462 20.5823087,9.75892664 21.2803099,9.54080145 C21.978311,9.32267626 22.6152368,9.21361347 23.1910877,9.21361347 C24.1159389,9.21361347 24.8183027,9.3488513 25.2981783,9.61932656 C25.7780538,9.88980183 26.0528917,10.3653152 26.122692,11.0458662 C25.2676406,10.4874655 24.2555394,10.2082649 23.0863875,10.2082649 C21.952136,10.2082649 20.944397,10.4176652 20.0631706,10.8364658 C19.1819442,11.2552665 18.4970309,11.8354799 18.0084301,12.5771059 C17.5198292,13.3187318 17.275529,14.1694206 17.275529,15.1291721 C17.275529,16.0714735 17.5198292,16.9090747 18.0084301,17.6419758 C18.4970309,18.3748769 19.1819442,18.9463651 20.0631706,19.3564408 C20.944397,19.7665165 21.952136,19.9715542 23.0863875,19.9715542 C24.2380892,19.9715542 25.2501908,19.7010789 26.122692,19.160128 L26.122692,19.6312787 L31.4623998,19.6312787 L31.4623998,11.0720412 C31.4623998,8.97803813 30.7774861,7.41626071 29.4076593,6.38670934 Z M25.7824165,15.9536858 C25.4334161,16.2241611 24.9797152,16.3593989 24.4213145,16.3593989 C23.8629138,16.3593989 23.4092129,16.2241611 23.0602125,15.9536858 C22.7112121,15.6832106 22.5367117,15.3298475 22.5367117,14.8935968 C22.5367117,14.457346 22.7112121,14.103983 23.0602125,13.8335077 C23.4092129,13.5630325 23.8629138,13.4277946 24.4213145,13.4277946 C24.9797152,13.4277946 25.4334161,13.5630325 25.7824165,13.8335077 C26.1314168,14.103983 26.3059172,14.457346 26.3059172,14.8935968 C26.3059172,15.3298475 26.1314168,15.6832106 25.7824165,15.9536858 Z" id="Shape"></path>
                    <path d="M48.3976527,10.0250397 L48.3976527,5.23500765 C47.4030012,5.23500765 46.5566751,5.34407045 45.858674,5.56219563 C45.1606728,5.78032082 44.610997,6.15985887 44.2096466,6.7008098 C43.6163456,6.12495896 42.9096195,5.6799833 42.0894685,5.36588285 C41.2693174,5.05178239 40.3793661,4.89473216 39.4196145,4.89473216 C38.1806629,4.89473216 37.0682237,5.14775766 36.0822972,5.65380827 C35.0963706,6.15985887 34.3285696,6.86658491 33.7788938,7.77398637 C33.229218,8.68138783 32.9543801,9.7109392 32.9543801,10.8626409 C32.9543801,11.6827919 33.1027054,12.4462307 33.3993557,13.1529567 C33.696006,13.8596828 34.1235319,14.4660713 34.6819326,14.9721219 C33.6000312,15.7748232 33.0590802,16.7607494 33.0590802,17.9299012 C33.0590802,19.0292528 33.6829185,19.9104792 34.9305955,20.5735801 C36.1782724,21.2366809 38.0061625,21.5682315 40.414266,21.5682315 L41.2518672,21.5682315 C41.7579178,21.5682315 42.1069186,21.616219 42.2988688,21.7121942 C42.4908189,21.8081695 42.5867942,21.969582 42.5867942,22.1964325 C42.5867942,22.4058328 42.455919,22.5585204 42.1941686,22.6544956 C41.9324182,22.7504709 41.4089175,22.7984583 40.6236663,22.7984583 C39.3672645,22.7984583 38.2112001,22.6370455 37.1554737,22.3142201 C36.0997473,21.9913948 35.1967085,21.6205816 34.4463573,21.201781 L32.4832294,25.2589119 C34.9785829,26.6549138 37.7618623,27.352915 40.8330666,27.352915 C43.3458703,27.352915 45.1737603,26.9079393 46.3167371,26.017988 C47.4597139,25.1280367 48.0312021,23.86291 48.0312021,22.2226075 C48.0312021,20.6870051 47.5775016,19.513491 46.6701002,18.7020648 C45.7626987,17.8906387 44.3928718,17.4849256 42.5606191,17.4849256 L40.2833908,17.4849256 C39.0618889,17.4849256 38.4511381,17.3366002 38.4511381,17.0399499 C38.4511381,16.9003498 38.5122131,16.7781995 38.6343634,16.6734994 C38.8088638,16.6909495 39.0706142,16.6996744 39.4196145,16.6996744 C41.4961675,16.6996744 43.0928448,16.1674488 44.2096466,15.1029971 C45.3264483,14.0385454 45.884849,12.6250933 45.884849,10.8626409 C45.884849,10.6706907 45.8761241,10.5223654 45.858674,10.4176652 C46.6439251,10.1559148 47.4902512,10.0250397 48.3976527,10.0250397 Z M40.5451412,11.948905 C40.2484909,12.2368304 39.8733151,12.3807931 39.4196145,12.3807931 C38.965914,12.3807931 38.5907382,12.2368304 38.2940879,11.948905 C37.9974376,11.6609795 37.8491123,11.2988917 37.8491123,10.8626409 C37.8491123,10.4263901 37.9974376,10.0643022 38.2940879,9.77637679 C38.5907382,9.48845137 38.965914,9.34448866 39.4196145,9.34448866 C39.8733151,9.34448866 40.2484909,9.48845137 40.5451412,9.77637679 C40.8417915,10.0643022 40.9901168,10.4263901 40.9901168,10.8626409 C40.9901168,11.2988917 40.8417915,11.6609795 40.5451412,11.948905 Z" id="Shape"></path>
                    <path d="M60.4119985,5.85012105 C59.2951968,5.14339502 57.9515449,4.790032 56.3810426,4.790032 C55.0199407,4.790032 53.7722637,5.12594486 52.6380122,5.79777098 C51.5037607,6.46959709 50.6050841,7.39008567 49.9419832,8.55923751 C49.2788824,9.72838936 48.9473318,11.0196911 48.9473318,12.4331432 C48.9473318,13.8116953 49.2745198,15.0855469 49.9288957,16.2546988 C50.5832717,17.4238506 51.4601355,18.3530645 52.5594871,19.0423403 C53.6588387,19.7316162 54.8454403,20.0762544 56.1192923,20.0762544 C57.410594,20.0762544 58.5492082,19.8494039 59.5351348,19.3957034 C60.5210613,18.9420028 61.2757748,18.3748769 61.7992756,17.6943259 L58.9200214,14.9459469 C58.6931709,15.2076972 58.3441705,15.4301851 57.8730198,15.6134103 C57.4018691,15.7966356 56.9394433,15.8882482 56.4857428,15.8882482 C55.9273421,15.8882482 55.4387413,15.7530104 55.0199407,15.4825351 C54.60114,15.2120599 54.2695894,14.8412467 54.0252892,14.370096 L63.6315282,14.370096 C63.7362284,13.7593453 63.7885785,13.1660443 63.7885785,12.5901934 C63.7885785,11.1767413 63.5050157,9.87671431 62.9378897,8.69011271 C62.3707638,7.5035111 61.5288003,6.55684709 60.4119985,5.85012105 Z M54.9937656,9.47536385 C55.4300164,9.21361347 55.9273421,9.08273828 56.4857428,9.08273828 C57.0266937,9.08273828 57.5022067,9.21797611 57.9122824,9.48845137 C58.3223581,9.75892664 58.6320959,10.1297398 58.8414962,10.6008905 L53.9729391,10.6008905 C54.2172394,10.1122897 54.5575148,9.73711424 54.9937656,9.47536385 Z" id="Shape"></path>
                    <polygon id="Path" points="65.385259 0 65.385259 19.6312787 70.8820171 19.6312787 70.8820171 0"></polygon>
                    <path d="M85.8541406,5.52293308 L86.5608666,5.23500765 C86.142066,3.9437059 85.3699024,2.92724165 84.2443757,2.1856157 C83.1188491,1.44398974 81.6486843,1.07317657 79.8338818,1.07317657 C78.0016291,1.07317657 76.4965644,1.43526447 75.3186877,2.15944066 C74.1408109,2.88361685 73.5518726,4.05713093 73.5518726,5.6799833 C73.5518726,6.69208492 73.8572482,7.50787334 74.4679989,8.12734938 C75.0787497,8.74682542 75.794201,9.20925083 76.6143521,9.51462641 C77.4345031,9.82000199 78.4815047,10.1297398 79.7553566,10.4438403 L80.4097326,10.6008905 C81.6661344,10.880091 82.6869609,11.1767413 83.4722121,11.4908418 C84.2574632,11.8049423 84.894389,12.2499179 85.3829899,12.8257688 C85.8715907,13.4016196 86.1158909,14.1606957 86.1158909,15.1029971 C86.1158909,16.5164491 85.5400401,17.5503632 84.3883384,18.2047391 C83.2366367,18.8591151 81.8406348,19.1863031 80.2003323,19.1863031 C78.6123798,19.1863031 77.242553,18.8416649 76.0908513,18.152389 C74.9391496,17.4631132 74.2062485,16.4030241 73.8921481,14.9721219 L73.185422,15.2600473 C73.4995225,16.7781995 74.2934985,17.9299012 75.5673505,18.7151524 C76.8412025,19.5004035 78.3768045,19.8930291 80.1741573,19.8930291 C82.05876,19.8930291 83.6598,19.5047662 84.9772768,18.7282399 C86.2947536,17.9517136 86.9534922,16.7345743 86.9534922,15.076822 C86.9534922,13.9949206 86.6961044,13.1267817 86.1813285,12.4724057 C85.6665527,11.8180298 84.9816394,11.3119792 84.126588,10.9542535 C83.2715367,10.5965279 82.1547353,10.260615 80.7761831,9.94651454 L80.0956321,9.78946431 C78.8741302,9.51026377 77.888204,9.23542587 77.1378528,8.96495061 C76.3875016,8.69447535 75.7418509,8.29312449 75.2009,7.76089885 C74.6599491,7.2286732 74.3894738,6.53503469 74.3894738,5.6799833 C74.3894738,4.30143116 74.899887,3.3067797 75.9207135,2.69602894 C76.94154,2.08527818 78.2372044,1.7799026 79.8077067,1.7799026 C81.3956592,1.7799026 82.6956858,2.10709058 83.7077874,2.76146654 C84.719889,3.41584249 85.43534,4.33633147 85.8541406,5.52293308 Z" id="Path"></path>
                    <path d="M97.2664606,18.9507277 L96.0100588,18.9507277 C94.8234572,18.9507277 93.9684058,18.6453521 93.444905,18.0346014 C92.9214043,17.4238506 92.6596539,16.498999 92.6596539,15.2600473 L92.6596539,5.88938361 L96.8738351,5.88938361 L96.8738351,5.23500765 L92.6596539,5.23500765 L92.6596539,1.59667733 L91.8482277,1.80607764 L91.8482277,5.23500765 L89.3877741,5.23500765 L89.3877741,5.88938361 L91.8482277,5.88938361 L91.8482277,15.4432726 C91.8482277,16.8392745 92.1623282,17.886276 92.7905291,18.5842772 C93.41873,19.2822783 94.4308316,19.6312787 95.8268335,19.6312787 L97.2664606,19.6312787 L97.2664606,18.9507277 Z" id="Path"></path>
                    <path d="M112.212409,5.23500765 L111.400983,5.23500765 L111.400983,13.66337 C111.400983,15.2862224 110.934195,16.5949743 110.000619,17.5896257 C109.067042,18.5842772 107.823728,19.0816029 106.270676,19.0816029 C105.258574,19.0816029 104.364261,18.8547524 103.587734,18.4010519 C102.811208,17.9473514 102.213545,17.3104252 101.794744,16.4902741 C101.375944,15.670123 101.166543,14.7278217 101.166543,13.66337 L101.166543,5.23500765 L100.355117,5.23500765 L100.355117,13.689545 C100.355117,14.8935968 100.599417,15.9536858 101.088018,16.8698122 C101.576619,17.7859385 102.265895,18.5013894 103.155846,19.0161653 C104.045798,19.5309412 105.084074,19.7883289 106.270676,19.7883289 C107.457277,19.7883289 108.495554,19.5309412 109.385505,19.0161653 C110.275457,18.5013894 110.964733,17.7859385 111.453333,16.8698122 C111.941934,15.9536858 112.186234,14.8935968 112.186234,13.689545 L112.212409,5.23500765 Z" id="Path"></path>
                    <path d="M129.618813,0 L128.807387,0 L128.807387,9.60623905 C128.301336,8.21023714 127.47246,7.09779801 126.320758,6.26892167 C125.169057,5.44004532 123.842855,5.02560735 122.342153,5.02560735 C121.085751,5.02560735 119.947137,5.34843269 118.92631,5.99408376 C117.905484,6.63973484 117.107145,7.5253235 116.531294,8.65085015 C115.955443,9.77637679 115.667518,11.0371413 115.667518,12.4331432 C115.667518,13.8291451 115.955443,15.0899096 116.531294,16.2154362 C117.107145,17.3409629 117.905484,18.2265515 118.92631,18.8722026 C119.947137,19.5178537 121.085751,19.840679 122.342153,19.840679 C123.842855,19.840679 125.169057,19.426241 126.320758,18.5973647 C127.47246,17.7684883 128.301336,16.6560492 128.807387,15.2600473 L128.807387,19.6312787 L129.618813,19.6312787 L129.618813,0 Z M125.705645,18.2832642 C124.737169,18.86784 123.650904,19.160128 122.446853,19.160128 C121.312601,19.160128 120.291775,18.86784 119.384373,18.2832642 C118.476972,17.6986885 117.765884,16.8959872 117.251108,15.8751607 C116.736332,14.8543342 116.478944,13.7069952 116.478944,12.4331432 C116.478944,11.1592912 116.736332,10.0119521 117.251108,8.99112565 C117.765884,7.97029915 118.476972,7.16759785 119.384373,6.58302213 C120.291775,5.9984464 121.312601,5.70615834 122.446853,5.70615834 C123.650904,5.70615834 124.737169,5.9984464 125.705645,6.58302213 C126.674121,7.16759785 127.43756,7.97029915 127.995961,8.99112565 C128.554362,10.0119521 128.833562,11.1592912 128.833562,12.4331432 C128.833562,13.7069952 128.554362,14.8543342 127.995961,15.8751607 C127.43756,16.8959872 126.674121,17.6986885 125.705645,18.2832642 Z" id="Shape"></path>
                    <path d="M134.042398,2.00239043 C134.199449,2.16816554 134.391399,2.25105329 134.618249,2.25105329 C134.862549,2.25105329 135.063225,2.16816554 135.220275,2.00239043 C135.377325,1.83661532 135.45585,1.64030253 135.45585,1.41345207 C135.45585,1.1866016 135.372963,0.994651454 135.207187,0.837601225 C135.041412,0.680550995 134.8451,0.60202588 134.618249,0.60202588 C134.391399,0.60202588 134.199449,0.680550995 134.042398,0.837601225 C133.885348,0.994651454 133.806823,1.1866016 133.806823,1.41345207 C133.806823,1.64030253 133.885348,1.83661532 134.042398,2.00239043 Z M134.225624,5.23500765 L134.225624,19.6312787 L135.03705,19.6312787 L135.03705,5.23500765 L134.225624,5.23500765 Z" id="Shape"></path>
                    <path d="M142.130486,18.9376402 C143.212388,19.574566 144.442614,19.8930291 145.821167,19.8930291 C147.199719,19.8930291 148.434308,19.574566 149.524935,18.9376402 C150.615561,18.3007144 151.46625,17.4151253 152.077001,16.2808738 C152.687752,15.1466223 152.993127,13.8640454 152.993127,12.4331432 C152.993127,11.002241 152.687752,9.71966408 152.077001,8.58541255 C151.46625,7.45116103 150.615561,6.56557197 149.524935,5.92864617 C148.434308,5.29172037 147.199719,4.97325727 145.821167,4.97325727 C144.442614,4.97325727 143.212388,5.29172037 142.130486,5.92864617 C141.048585,6.56557197 140.202258,7.45116103 139.591508,8.58541255 C138.980757,9.71966408 138.675381,11.002241 138.675381,12.4331432 C138.675381,13.8640454 138.980757,15.1466223 139.591508,16.2808738 C140.202258,17.4151253 141.048585,18.3007144 142.130486,18.9376402 Z M149.106134,18.3225268 C148.137658,18.8983776 147.042669,19.1863031 145.821167,19.1863031 C144.599665,19.1863031 143.509038,18.8983776 142.549287,18.3225268 C141.589535,17.7466759 140.834822,16.9439746 140.285146,15.9144233 C139.73547,14.8848719 139.460632,13.7244449 139.460632,12.4331432 C139.460632,11.1418414 139.73547,9.98141446 140.285146,8.95186309 C140.834822,7.92231172 141.589535,7.11961041 142.549287,6.54375957 C143.509038,5.96790873 144.599665,5.6799833 145.821167,5.6799833 C147.042669,5.6799833 148.137658,5.96790873 149.106134,6.54375957 C150.07461,7.11961041 150.833686,7.92231172 151.383362,8.95186309 C151.933038,9.98141446 152.207876,11.1418414 152.207876,12.4331432 C152.207876,13.7244449 151.933038,14.8848719 151.383362,15.9144233 C150.833686,16.9439746 150.07461,17.7466759 149.106134,18.3225268 Z" id="Shape"></path>
                </g>
            </g>
        </g>
    </g>
</svg>