<?xml version="1.0" encoding="utf-8"?>
<!-- Generator: Adobe Illustrator 26.0.2, SVG Export Plug-In . SVG Version: 6.00 Build 0)  -->
<svg version="1.1" id="Layer_1" xmlns="http://www.w3.org/2000/svg" xmlns:xlink="http://www.w3.org/1999/xlink" x="0px" y="0px"
	 viewBox="0 0 232.8 254" style="enable-background:new 0 0 232.8 254;" xml:space="preserve">
<style type="text/css">
	.st0{fill:#3685FF;}
</style>
<g>
	<path class="st0" d="M207,206.1c-1.5,1.3-3.1,2.5-4.9,3.4c-13,7-29.1,2.2-36.2-10.8c-2.2-4.1-3.2-8.5-3.2-12.9
		c-7.4-0.9-14.4-4.9-18.8-11.5c-5.2,1.8-10.8,2.8-16.6,2.8c-9.6,0-18.6-2.7-26.2-7.3c-1.4-0.8-2.7-1.8-4-2.7c-1.9-1.5-3.8-3-5.5-4.8
		c-2.3-2.3-4.4-4.8-6.2-7.5c-0.5-0.7-0.9-1.4-1.3-2.1c-4.6-7.6-7.3-16.6-7.3-26.2c0-7.8,1.8-15.3,5-21.9c0.4-0.7,0.7-1.5,1.1-2.2
		c1.9-3.6,4.3-6.9,7-9.9c4.4-4.8,9.6-8.7,15.5-11.6c1.5-0.7,3-1.4,4.5-1.9c5.1-1.9,10.6-2.9,16.3-3c1.6-5.4,4.9-10.3,9.7-13.8
		c-4.4-4.8-7-11.1-7-18.1c0-4.5,1.1-8.7,3.1-12.4c-10.8-3.4-18.6-13.5-18.6-25.4c0-2.2,0.3-4.4,0.8-6.5C89.6,2.5,67.1,12,48.7,26.5
		c-3.2,2.5-6.3,5.2-9.2,8c-2.2,2.1-4.3,4.3-6.4,6.6c-1.4,1.5-2.7,3-4,4.6c-3.2,3.9-6.3,8.1-9,12.4C7.4,77.8,0,101.4,0,126.7v0v0
		c0,25.3,7.4,48.8,20.1,68.6c2.8,4.3,5.8,8.4,9,12.4c1.3,1.6,2.6,3.1,4,4.6c2.1,2.3,4.2,4.4,6.4,6.6c2.9,2.8,6,5.5,9.2,8
		c21.6,17,48.9,27.2,78.6,27.2c1.5,0,2.9,0,4.4-0.1c0.4,0,0.7,0,1.1,0c2.9-0.1,5.8-0.3,8.6-0.7c0.3,0,0.7-0.1,1-0.1
		c31.7-3.8,59.9-19.2,80.1-41.9C217.1,210.1,211.9,208.4,207,206.1z"/>
	<circle class="st0" cx="166" cy="57.2" r="6.9"/>
	<circle class="st0" cx="201.2" cy="159.4" r="6.9"/>
	<circle class="st0" cx="211" cy="141.1" r="4"/>
	<circle class="st0" cx="155.6" cy="37.4" r="4"/>
	<circle class="st0" cx="228.8" cy="159.4" r="4"/>
</g>
</svg>
