<?xml version="1.0" encoding="utf-8"?>
<!-- Generator: Adobe Illustrator 26.0.2, SVG Export Plug-In . SVG Version: 6.00 Build 0)  -->
<svg version="1.1" id="Layer_1" xmlns="http://www.w3.org/2000/svg" xmlns:xlink="http://www.w3.org/1999/xlink" x="0px" y="0px"
	 viewBox="0 0 16 16" style="enable-background:new 0 0 16 16;" xml:space="preserve">
<style type="text/css">
	.st0{fill:#FFFFFF;}
</style>
<g id="dev">
	<path id="linkedin" class="st0" d="M5.3,6c0.1,0,0.2,0.1,0.2,0.2l0,0v7.3c0,0.1-0.1,0.2-0.2,0.2l0,0H3c-0.1,0-0.2-0.1-0.2-0.2l0,0
		V6.2C2.8,6.1,2.9,6,3,6l0,0H5.3z M11,5.8c2.5,0,2.9,1.8,2.9,3.6l0,0v4c0,0.1-0.1,0.2-0.2,0.2l0,0h-2.2c-0.1,0-0.2-0.1-0.2-0.2l0,0
		V9.9c0-1-0.1-1.7-1-1.7c-0.8,0-1.2,0.5-1.2,1.7l0,0v3.6c0,0.1-0.1,0.2-0.2,0.2l0,0H6.7c-0.1,0-0.2-0.1-0.2-0.2l0,0V6.2
		C6.5,6.1,6.6,6,6.7,6l0,0h2.2C9,6,9.1,6.1,9.1,6.2l0,0v0.5C9.4,6.2,10.1,5.8,11,5.8z M4.1,2.4c0.8,0,1.5,0.7,1.5,1.5
		S4.9,5.4,4.1,5.4S2.6,4.7,2.6,3.9S3.3,2.4,4.1,2.4z"/>
</g>
</svg>
