<?xml version="1.0" encoding="utf-8"?>
<!-- Generator: Adobe Illustrator 26.0.2, SVG Export Plug-In . SVG Version: 6.00 Build 0)  -->
<svg version="1.1" id="Layer_1" xmlns="http://www.w3.org/2000/svg" xmlns:xlink="http://www.w3.org/1999/xlink" x="0px" y="0px"
	 viewBox="0 0 16 16" style="enable-background:new 0 0 16 16;" xml:space="preserve">
<style type="text/css">
	.st0{fill:#FFFFFF;}
</style>
<g id="dev">
	<g id="menu" transform="translate(1.000000, 1.000000)">
		<path class="st0" d="M13,3H1C0.4,3,0,2.6,0,2s0.4-1,1-1h12c0.6,0,1,0.4,1,1S13.6,3,13,3z"/>
		<path class="st0" d="M13,8H1C0.4,8,0,7.6,0,7s0.4-1,1-1h12c0.6,0,1,0.4,1,1S13.6,8,13,8z"/>
		<path class="st0" d="M13,13H1c-0.6,0-1-0.4-1-1s0.4-1,1-1h12c0.6,0,1,0.4,1,1S13.6,13,13,13z"/>
	</g>
</g>
</svg>
