<?xml version="1.0" encoding="utf-8"?>
<!-- Generator: Adobe Illustrator 26.0.2, SVG Export Plug-In . SVG Version: 6.00 Build 0)  -->
<svg version="1.1" id="Layer_1" xmlns="http://www.w3.org/2000/svg" xmlns:xlink="http://www.w3.org/1999/xlink" x="0px" y="0px"
	 viewBox="0 0 16 16" style="enable-background:new 0 0 16 16;" xml:space="preserve">
<style type="text/css">
	.st0{fill:#FFFFFF;}
</style>
<g id="dev">
	<path id="twitter" class="st0" d="M1.7,11.9c1.1,0.7,2.5,1.1,3.9,1.1c4.7,0,7.3-3.9,7.3-7.3c0-0.1,0-0.2,0-0.3
		c0.5-0.4,0.9-0.8,1.3-1.3c-0.5,0.2-1,0.4-1.5,0.4c0.5-0.3,0.9-0.8,1.1-1.4c-0.5,0.3-1,0.5-1.6,0.6c-0.5-0.5-1.1-0.8-1.9-0.8
		C9,2.9,7.9,4.2,7.9,5.6c0,0.2,0,0.4,0.1,0.6C5.9,6.1,4,5.1,2.7,3.4C2.4,3.8,2.2,4.3,2.2,4.8c0,0.9,0.5,1.7,1.1,2.1
		C3,6.8,2.6,6.8,2.2,6.5l0,0c0,1.2,0.9,2.3,2,2.5C4.1,9.2,3.8,9.2,3.6,9.2c-0.2,0-0.3,0-0.5,0c0.3,1,1.3,1.8,2.4,1.8
		c-0.9,0.7-2,1.1-3.2,1.1C2.1,11.9,1.9,11.9,1.7,11.9z"/>
</g>
</svg>
